<?xml version="1.0" encoding="UTF-8"?>
<svg id="Layer_1" data-name="Layer 1" xmlns="http://www.w3.org/2000/svg" viewBox="0 0 309.5 119.62">
  <defs>
    <style>
      .cls-1 {
        opacity: 0;
      }

      .cls-1, .cls-2, .cls-3 {
        stroke-width: 0px;
      }

      .cls-2 {
        fill: #325eb5;
      }

      .cls-3 {
        fill: #747679;
      }
    </style>
  </defs>
  <g>
    <circle class="cls-1" cx="17.72" cy="66.31" r="17.72"/>
    <circle class="cls-1" cx="291.78" cy="66.31" r="17.72"/>
    <circle class="cls-1" cx="156.92" cy="17.72" r="17.72"/>
    <circle class="cls-1" cx="156.92" cy="101.9" r="17.72"/>
  </g>
  <g>
    <path class="cls-3" d="m117.03,66.4c0,9.81-7.89,17.76-17.62,17.76s-17.62-7.95-17.62-17.76,7.89-17.76,17.62-17.76,17.62,7.96,17.62,17.76m-17.62-13.69c-7.5,0-13.57,6.13-13.57,13.69s6.07,13.69,13.57,13.69,13.58-6.13,13.58-13.69-6.08-13.69-13.58-13.69"/>
    <rect class="cls-3" x="74.18" y="36.29" width="4.05" height="47.53"/>
    <path class="cls-3" d="m53.06,48.63c-5.47,0-10.35,2.52-13.59,6.46v-18.8h-4.04v47.5h4.04l2.77-3.43c2.99,2.36,6.73,3.79,10.82,3.79,9.74,0,17.63-7.95,17.63-17.76s-7.89-17.76-17.63-17.76Zm0,31.45c-7.5,0-13.58-6.13-13.58-13.69s6.08-13.69,13.58-13.69,13.58,6.13,13.58,13.69-6.08,13.69-13.58,13.69Z"/>
    <path class="cls-3" d="m137.92,80.08c-7.49,0-13.58-6.13-13.58-13.69s6.09-13.69,13.58-13.69c3.76,0,7.15,1.54,9.61,4.01l2.85-2.87c-3.19-3.22-7.6-5.21-12.46-5.21-9.73,0-17.62,7.96-17.62,17.76s7.89,17.76,17.62,17.76c4.87,0,9.27-1.99,12.46-5.2l-2.85-2.88c-2.47,2.47-5.85,4-9.61,4"/>
  </g>
  <g>
    <path class="cls-2" d="m168.37,36.28h8.51v16.7c3.26-2.84,6.4-4.38,10.04-4.38,6.4,0,11.64,4.19,11.64,12.51v22.63h-8.51v-16.18c0-6.96-.83-11.09-5.82-11.09-2.37,0-4.41,1.23-5.76,3.35-1.73,2.71-1.6,5.8-1.6,9.35v14.57h-8.51v-47.45Z"/>
    <path class="cls-2" d="m203.54,49.49h8.51v17.86c0,6.12,1.92,9.35,6.4,9.35s6.4-3.16,6.4-8.96v-18.24h8.51v15.79c0,6.32-.38,10.96-3.97,14.96-2.69,3.03-6.21,4.32-10.94,4.32-8.19,0-13.24-4.19-14.58-12.18-.45-2.77-.32-4.38-.32-7.22v-15.67Z"/>
    <path class="cls-2" d="m247.33,83.73h-8.51v-47.45h8.51v16.96c3.07-3.09,6.59-4.64,10.68-4.64,8.76,0,16.05,7.35,16.05,18.05s-7.61,17.99-16.25,17.99c-4.29,0-7.42-1.55-10.49-4.51v3.61Zm-.38-17.21c0,6.19,4.09,10.25,9.34,10.25s9.21-4.32,9.21-10.19-3.58-10.12-9.21-10.12-9.34,4.06-9.34,10.06Z"/>
  </g>
</svg>